<svg xmlns="http://www.w3.org/2000/svg" viewBox="0 0 182 206"><path d="M55.579,198.849a91.056,91.056,0,0,1,0-167.7c.14-.059,4.246-1.508,7.3-.462,1.937.66,6.253,7.509,3.7,10.293C62.93,43.572,56,47.55,56,47.55a76,76,0,1,0,70,0s-6.961-3.928-9.612-6.566c-1.779-3.673.957-9.177,3.811-11.114,2.637-.71,5.8,1.105,5.8,1.105l.3.124.126.053a91.023,91.023,0,0,1-70.843,167.7Zm17.127-37.543A47.009,47.009,0,0,1,83.1,71.658H83V5.3l0,0A5.5,5.5,0,0,1,88.5,0q.246,0,.486.022l0,0,31,.1s5.177,2.558,5.177,7.53-5.177,7.256-5.177,7.256H98.636V71.615a47.007,47.007,0,1,1-25.931,89.691ZM59.832,118c0,17.645,13.982,32,31.168,32s31.169-14.355,31.169-32S108.186,86,91,86,59.832,100.355,59.832,118ZM83,118.5a8.5,8.5,0,1,1,8.5,8.5A8.5,8.5,0,0,1,83,118.5Z" fill="currentColor"/></svg>