<svg xmlns="http://www.w3.org/2000/svg" viewBox="0 0 1099.01 1091.23"><defs><style>.cls-1{fill:#3a2ef2;}.cls-2{fill:#8eb8ff;}.cls-3{fill:#fff;}.cls-4{fill:#c4ddff;}.cls-5{fill:#090928;}.cls-6{fill:#3a2eff;}</style></defs><g id="Layer_2" data-name="Layer 2"><g id="Ñëîé_1" data-name="Ñëîé 1"><path class="cls-1" d="M315.17,560.85H122a29.26,29.26,0,0,1-29.23-29.22V472a2.5,2.5,0,0,1,5,0v59.6A24.25,24.25,0,0,0,122,555.85H315.17a2.5,2.5,0,0,1,0,5Z"/><path class="cls-1" d="M368.64,513.6H175.48a29.26,29.26,0,0,1-29.23-29.22V352.7a2.5,2.5,0,0,1,5,0V484.38a24.26,24.26,0,0,0,24.23,24.22H368.64a2.5,2.5,0,0,1,0,5Z"/><path class="cls-1" d="M539,461.25H238.92A29.26,29.26,0,0,1,209.69,432V394.31a2.5,2.5,0,0,1,5,0V432a24.26,24.26,0,0,0,24.23,24.23H539a2.5,2.5,0,0,1,0,5Z"/><path class="cls-2" d="M1001.07,819.27H473.32a26.06,26.06,0,0,1-25.92-28.73L519.21,93.13A22.53,22.53,0,0,1,541.63,72.9h534.84a22.53,22.53,0,0,1,22.41,24.85L1027,795.88A26.07,26.07,0,0,1,1001.07,819.27Z"/><path class="cls-3" d="M436.42,764.6a9.31,9.31,0,0,1-9.25-10.25L499,56.94a5.77,5.77,0,0,1,5.75-5.18h534.84a5.79,5.79,0,0,1,5.74,6.37L973.42,756.26a9.27,9.27,0,0,1-9.25,8.34Z"/><path class="cls-4" d="M1027.39,68.53l-70,679.31H444.7L514.64,68.53ZM1039.57,35H504.73a22.53,22.53,0,0,0-22.42,20.23L410.5,752.63a26.07,26.07,0,0,0,25.92,28.74H964.17A26.07,26.07,0,0,0,990.1,758L1062,59.84A22.52,22.52,0,0,0,1039.57,35Z"/><path class="cls-4" d="M981.75,324.83c-19.64,74.93-80.31,249.62-229.4,307.78a12.54,12.54,0,0,1-12.54-2C616.7,528.36,614.23,343.47,619.25,266.15a10.82,10.82,0,0,1,12.53-10l.12,0c88.73,14.36,145-10.8,175.62-33.07a6.52,6.52,0,0,1,9.12,1.47c22.09,30.82,67.5,72.43,156.24,86.79l.12,0A10.83,10.83,0,0,1,981.75,324.83Z"/><path class="cls-5" d="M779.1,458.27H684a6.73,6.73,0,0,1-6.73-6.74V407.86a6.74,6.74,0,1,1,13.47,0v36.93h81.65V378.07a40.83,40.83,0,0,0-81.11-6.63,6.74,6.74,0,0,1-13.3-2.17,54.3,54.3,0,0,1,107.88,8.8v73.46A6.74,6.74,0,0,1,779.1,458.27Z"/><rect class="cls-5" x="664.35" y="398.13" width="134.38" height="90.13" rx="20.99"/><path class="cls-3" d="M744.05,435.37A12.72,12.72,0,0,0,731,422.66a12.85,12.85,0,0,0-12.33,12.72,12.63,12.63,0,0,0,4,9.22l-3,16.73a4.47,4.47,0,0,0,4.4,5.26H738.7a4.47,4.47,0,0,0,4.4-5.26l-3-16.73A12.66,12.66,0,0,0,744.05,435.37Z"/><path class="cls-2" d="M907.41,284.64q-12.88,1-24.61,1c-100.79,0-137.45-51.13-146.86-67.05a4.54,4.54,0,0,0-7.84,0c-9.46,15.9-46.69,67.06-147.49,67.06q-11.75,0-24.61-1a5.52,5.52,0,0,0-5.94,5.7C551.5,330.6,566.93,555.3,731.7,638,896.48,555.3,911.9,330.6,913.35,290.34A5.53,5.53,0,0,0,907.41,284.64ZM731.7,616.24c-132.29-73.25-157-251-161.53-311.58,3.52.11,7,.17,10.44.17,83.44,0,129-33.31,151.09-57.34,22,24,67.66,57.34,151.1,57.34,3.43,0,6.92-.06,10.44-.17C888.66,365.2,864,543,731.7,616.24Z"/><path class="cls-1" d="M536.52,474.21a43.28,43.28,0,0,0,41.9-30.47l38.72.55-.27,18.87a12.17,12.17,0,1,0,24.34.35l.27-18.88,12.91.18-.27,18.87a12.17,12.17,0,1,0,24.34.35l.27-18.88,1.41,0a12.17,12.17,0,0,0,.34-24.34L667,420.65h-.19l-37.16-.52-50.87-.72A42.69,42.69,0,0,0,574.34,409a43.22,43.22,0,1,0-37.82,65.22Zm-16.21-60.16a24.35,24.35,0,1,1,0,34.43A24.35,24.35,0,0,1,520.31,414.05Z"/><path class="cls-1" d="M76.8,1066.86S35,936.14,35,936.14l67-21.4s27,47.53,27,47.62c2.76,4.9,5.7,12.8,5.83,18.44.15,6.58-5.59,9.23-10.18,12.53a24.87,24.87,0,0,0-9.73,13c-4,11.4-3.32,23.44-2.39,35.26.81,10.25-1.52,17-11,22.1C94.87,1067.28,84,1071.17,76.8,1066.86Z"/><path class="cls-1" d="M528.71,1091.22H391.48v-70.31l53.58-11.25c5.51-1.14,13.93-1.54,19.34.05,6.32,1.86,7.09,8.14,8.84,13.51a24.91,24.91,0,0,0,9.47,13.25c9.65,7.24,21.31,10.29,32.85,13,10,2.35,15.77,6.63,17.7,17.25C534.61,1074.14,535,1085.68,528.71,1091.22Z"/><path class="cls-3" d="M388.39,1020.67,314.75,746.76A41.91,41.91,0,0,1,395.7,725l73.63,273.91C475.34,1021.26,393.42,1039.38,388.39,1020.67Z"/><path class="cls-5" d="M408,1030.89a46.91,46.91,0,0,1-11.8-1.28c-7.15-1.91-9.52-5.56-10.26-8.29L312.34,747.41a44.41,44.41,0,1,1,85.77-23.06l73.63,273.91c.86,3.2.74,8.16-4.73,13.64C455.69,1023.23,427.49,1030.89,408,1030.89ZM355.29,696.46a39.47,39.47,0,0,0-38.12,49.65L390.8,1020c.71,2.64,4.05,4,6.72,4.76,15.81,4.22,53.25-3.7,66-16.42,3-3,4.2-6,3.44-8.8L393.28,725.65a39.46,39.46,0,0,0-38-29.19Z"/><path class="cls-3" d="M182.05,967.5l-47.81,23.33c-20.8,10.15-57.56-65.17-36.76-75.32l47.81-23.33a176.84,176.84,0,0,0,70.42-62.38A176,176,0,0,0,235.94,787c4.44-14,4.19-28.9,3.81-43.45-.28-10.63-1.72-21.23,5.17-30.21,10.9-14.2,33.31-16.63,49.74-13.93,22.83,3.77,54.35,13.56,50.59,36.4l-2.67,12.3a24.36,24.36,0,0,1-16.44,18l-1.66,10.08A260.24,260.24,0,0,1,182.05,967.5Z"/><path class="cls-5" d="M130.12,994.29c-11.2,0-23.74-15.27-32.1-32.41-4.94-10.13-8.13-20.3-9-28.64-1.31-12.91,3.27-18,7.35-20l47.81-23.33h0a173.86,173.86,0,0,0,89.37-103.7c4.44-14,4-29.23,3.69-42.64,0-1.3-.08-2.6-.13-3.9-.38-9.49-.77-19.31,5.82-27.89,11.8-15.37,35.45-17.62,52.12-14.87,21.5,3.54,56.92,13.35,52.66,39.26l0,.13L345,748.62A26.89,26.89,0,0,1,328.37,768L327,776.61a262.76,262.76,0,0,1-143.8,193.14l-1.1-2.25,1.1,2.25-47.81,23.33A11.84,11.84,0,0,1,130.12,994.29ZM282.77,700.93c-13.82,0-28.25,4-35.86,13.91-5.49,7.15-5.16,15.65-4.8,24.65,0,1.32.11,2.65.14,4,.36,13.8.77,29.44-3.92,44.28a179,179,0,0,1-91.94,106.68L98.58,917.75c-2.78,1.36-4.37,4.49-4.7,9.29-1.22,17.47,14.53,49.75,29.05,59.54,4,2.69,7.44,3.37,10.22,2L181,965.26A257.75,257.75,0,0,0,322,775.79l1.91-11.59,1.47-.47a21.83,21.83,0,0,0,14.74-16.17l2.66-12.24c3.49-21.58-28.9-30.23-48.54-33.46A71.44,71.44,0,0,0,282.77,700.93Z"/><path class="cls-5" d="M428.5,729.9c-10.47,12.23-29,24.21-51.41,23.54-39.87-1.2-93.13-25.39-143.26-37.7.84-57,9.49-85.35,34.46-136.51,13.64-28,42.92-61.55,73.93-59.29l14.27,16.76c36.78,2.67,52.1,31.33,55.93,68Z"/><polygon class="cls-5" points="311.22 501.61 372.12 501.61 382.48 546.18 300.86 546.18 311.22 501.61"/><circle class="cls-3" cx="345.71" cy="439.39" r="36.63" transform="translate(-126.93 140.74) rotate(-19.52)"/><path class="cls-5" d="M345.7,478.54A39.24,39.24,0,1,1,359.52,476,39,39,0,0,1,345.7,478.54Zm0-73.3a34.29,34.29,0,0,0-12.06,2.21,34.13,34.13,0,1,0,44,19.9h0a34.19,34.19,0,0,0-31.92-22.11Z"/><path class="cls-5" d="M381.19,415c-10.12,4.74-23.61,6.64-34.26,5.88-7.26-.51-13.58-3.77-18.82,1.29-4.95,4.79-6.44,12.69-4.05,19.08.61,1.62-.32,5.93.52,8,.74,1.85,3.51,1.11,3.56,2.8.41,15.25-17,15.76-27.29,10.74-12.67-6.16-22.87-24.11-11.19-36.16a15.85,15.85,0,0,1,5.18-3.4c4-1.71,9.15-1.33,12-4.6,4.71-5.32-1-12.42-2.24-17.94-6-25.88,24.18-36.56,44-34.49A53.33,53.33,0,0,1,380,380.55c6.83,6.48,13.82,22,6.54,30.6A15.51,15.51,0,0,1,381.19,415Z"/><path class="cls-5" d="M550,527.58a2.44,2.44,0,0,1-1.47-.48,2.49,2.49,0,0,1-.54-3.49c6.84-9.35,25-34.18,22.37-46a6.89,6.89,0,0,0-3.61-4.76,8.26,8.26,0,0,0-11.18,3.29l-9.08,16.65a2.47,2.47,0,0,1-1.94,1.29,2.5,2.5,0,0,1-2.16-.86c-.26-.31-.52-.62-.8-.91a2.5,2.5,0,0,1-.35-2.89l13.44-24.65a8.24,8.24,0,0,0-14.47-7.89l-13.52,24.79A2.5,2.5,0,0,1,524.1,483l-.18,0-.56-.09a2.5,2.5,0,0,1-1.87-3.67l4.93-9.05a8.16,8.16,0,0,0,.47-6.29,8.48,8.48,0,0,0-4-5.11c-4.33-2.27-8.3-.19-13.29,7-1.88,2.69-4.21,5.87-6.69,9.24-3.7,5-7.9,10.76-12.09,16.89a2.5,2.5,0,1,1-4.13-2.82c4.23-6.2,8.46-12,12.19-17,2.56-3.49,4.78-6.5,6.62-9.14,2.38-3.42,9.63-13.83,19.72-8.54a13.48,13.48,0,0,1,6.41,7.9l4.19-7.69a13.24,13.24,0,0,1,23.25,12.68l-.15.27a13.21,13.21,0,0,1,10.22,1,11.75,11.75,0,0,1,6.1,8.06c2.76,12.35-10.19,32.22-23.22,50A2.49,2.49,0,0,1,550,527.58Z"/><path class="cls-5" d="M119.5,814.09A13.23,13.23,0,0,1,109,792.87l.19-.24a13.18,13.18,0,0,1-10-2.52,11.76,11.76,0,0,1-4.84-8.87c-.91-12.63,14.82-30.37,30.34-46.06a2.5,2.5,0,1,1,3.55,3.51c-8.14,8.24-29.78,30.12-28.91,42.19a6.89,6.89,0,0,0,2.87,5.24,8.24,8.24,0,0,0,11.54-1.61l11.44-15.13a2.5,2.5,0,0,1,4.12.19c.21.34.42.68.65,1a2.51,2.51,0,0,1-.07,2.91L113,795.89a8.24,8.24,0,1,0,13.14,9.94l17-22.53a2.5,2.5,0,0,1,2.74-.88l.19.06.53.16a2.5,2.5,0,0,1,1.3,3.92l-6.24,8.25a8.25,8.25,0,0,0-1.36,6.12,8.4,8.4,0,0,0,3.21,5.64c3.95,2.89,8.19,1.41,14.17-4.93,2.26-2.39,5-5.19,8-8.15,4.41-4.44,9.41-9.47,14.46-14.93a2.5,2.5,0,0,1,3.67,3.4c-5.11,5.52-10.14,10.58-14.58,15-3.05,3.07-5.68,5.72-7.89,8.07-2.86,3-11.57,12.25-20.76,5.53a13.49,13.49,0,0,1-5.18-8.75l-5.28,7A13.23,13.23,0,0,1,119.5,814.09Z"/><path class="cls-5" d="M304.41,674.86a32.6,32.6,0,0,1-3.24-65c69.67-7.05,122.67-36.11,162-88.85a32.59,32.59,0,1,1,52.25,39c-50.17,67.26-120.06,105.86-207.7,114.73C306.61,674.8,305.5,674.86,304.41,674.86Z"/><path class="cls-5" d="M176.58,770.14a33.49,33.49,0,0,1-5.07-.39,32.6,32.6,0,0,1-27.18-37.24c7.38-47.31,24.72-87.15,51.51-118.39s63.44-54.21,108.61-67.94a32.59,32.59,0,1,1,19,62.37c-66.23,20.14-103.74,64-114.67,134A32.6,32.6,0,0,1,176.58,770.14Z"/><path class="cls-1" d="M195.84,616.62A2.49,2.49,0,0,1,194,612.5c27.2-31.72,64.14-54.84,109.77-68.71a2.5,2.5,0,0,1,1.46,4.78c-44.71,13.59-80.86,36.2-107.44,67.18A2.47,2.47,0,0,1,195.84,616.62Z"/><path class="cls-1" d="M249.29,654.92a2.49,2.49,0,0,1-1.82-4.2c18.74-20.09,44-35.08,75.21-44.56a2.5,2.5,0,0,1,1.46,4.78c-30.31,9.22-54.88,23.75-73,43.19A2.48,2.48,0,0,1,249.29,654.92Z"/><path class="cls-3" d="M346.91,418c-8.27-.64-18.85-1.53-25.74,4.12s-8.85,16.92-4.61,24.52a9.73,9.73,0,0,0,9,5.29Z"/><path class="cls-5" d="M325.55,454.39h0a12.24,12.24,0,0,1-11.17-6.57c-4.85-8.71-2.46-21.38,5.21-27.67s18.52-5.38,27.29-4.7l.23,0a2.5,2.5,0,1,1-.39,5l-.23,0c-7.88-.61-17.68-1.37-23.73,3.58-5.82,4.78-7.69,14.76-4,21.38a7.22,7.22,0,0,0,6.83,4,2.5,2.5,0,0,1,0,5Z"/><path class="cls-1" d="M365.83,538.32h0A13.08,13.08,0,0,0,377.74,546h6.52S382.62,658.4,452,669.16l-2.54-20.87,24.65-10.07s-60-26.52-77-86l-6.94-23.18a13,13,0,0,0-12.44-9.26h0A13.08,13.08,0,0,0,365.83,538.32Z"/><path class="cls-6" d="M312.7,332.28H77.48a15,15,0,0,1-15-15V125.08a8.8,8.8,0,0,1,8.79-8.79h56.17a8.79,8.79,0,0,1,8.42,6.3l10.62,35.89h167a14.26,14.26,0,0,1,14.27,14.26V317.27A15,15,0,0,1,312.7,332.28Z"/><rect class="cls-3" x="82.16" y="207.62" width="185.8" height="146.82"/><polygon class="cls-4" points="267.96 354.43 82.16 354.43 41.08 234.69 226.88 234.69 267.96 354.43"/><polygon class="cls-2" points="267.96 354.43 82.16 354.43 0 257.93 185.8 257.93 267.96 354.43"/><path class="cls-1" d="M837.58,956.39C876.49,976.47,950,966.77,940,909c-5-29-39.71-43.77-66.49-42.4a76.16,76.16,0,0,0-47.74,20.6c-13.88,13.08-19,33.08-34.16,44.89a2.68,2.68,0,0,0,1.2,4.75c15.92,2.62,30.35,9.94,43.69,18.87Z"/><path class="cls-1" d="M775.69,791.11a96.55,96.55,0,0,0-36.06-48c-32.35-23-104.82-33.29-120.72,15.25-14.63,44.68,35.16,66,66.29,82.29,24.46,12.81,55.54,27.85,69.43,53.25l7.66,14a3,3,0,0,0,5.42-.56L773.25,889C783,856.81,786.2,821.47,775.69,791.11Z"/><path class="cls-1" d="M686.1,908.7c-6.82,1.39-12.93,5-18.44,9.53a76.17,76.17,0,0,0-25.86,43,64.46,64.46,0,0,0,2.11,34.12c5.57,15.78,20.8,31.59,38.64,22.58,14.46-7.3,16.27-24.86,14.81-39.25-1.32-13-1.77-26.54,2.27-39.18a37.12,37.12,0,0,1,8-14.36,32.46,32.46,0,0,1,10-7.18,1.3,1.3,0,0,0,.12-2.36c-7.66-3.93-16-7.34-24.72-7.56A30.16,30.16,0,0,0,686.1,908.7Z"/><path class="cls-1" d="M756.33,985.81a2.73,2.73,0,0,1-2.72-2.46c-2-19.34-10.62-64.21-48.34-64.21h-.39a2.74,2.74,0,0,1,0-5.47h.42c16.57,0,29.84,7.66,39.45,22.79,9.46,14.89,13,33.42,14.32,46.34a2.74,2.74,0,0,1-2.44,3Z"/><path class="cls-1" d="M767.31,987.14a2.84,2.84,0,0,1-.81-.12,2.73,2.73,0,0,1-1.8-3.42A186.61,186.61,0,0,1,774.1,959a100.65,100.65,0,0,1,13.7-21.79l.35-.42c4.58-5.48,11.51-13.77,18.83-15.21A2.74,2.74,0,1,1,808,927c-5.42,1.06-11.85,8.76-15.69,13.35l-.35.42a95.13,95.13,0,0,0-13,20.62,181.68,181.68,0,0,0-9.13,23.84A2.74,2.74,0,0,1,767.31,987.14Z"/><path class="cls-1" d="M762.11,985.54h-.3a2.75,2.75,0,0,1-2.42-3c2.84-26,5.39-60.24-.21-94.43a2.74,2.74,0,1,1,5.4-.89c5.71,34.85,3.13,69.57.25,95.92A2.73,2.73,0,0,1,762.11,985.54Z"/><path class="cls-5" d="M794,1091H727.18a2.73,2.73,0,0,1-2.66-2.1l-17.87-75a16.57,16.57,0,0,1-10.64-4.68,15.89,15.89,0,0,1-4.88-11.48,16.4,16.4,0,0,1,16.56-16.19H813.45a16.68,16.68,0,0,1,11.68,4.71A15.91,15.91,0,0,1,830,997.75a16.37,16.37,0,0,1-15.53,16.16l-17.87,75A2.74,2.74,0,0,1,794,1091Zm-64.61-5.47h62.45l17.86-74.95a2.74,2.74,0,0,1,2.66-2.1h1.14a10.93,10.93,0,0,0,11.09-10.72,10.49,10.49,0,0,0-3.22-7.55,11.25,11.25,0,0,0-7.87-3.17H707.69a10.93,10.93,0,0,0-11.09,10.72,10.5,10.5,0,0,0,3.23,7.56,11.17,11.17,0,0,0,7.86,3.16h1.13a2.75,2.75,0,0,1,2.66,2.1Z"/><path class="cls-1" d="M237.75,178a2.5,2.5,0,0,1-2.5-2.5V125.86a35.53,35.53,0,0,1,35.5-35.5h154a2.5,2.5,0,0,1,0,5h-154a30.53,30.53,0,0,0-30.5,30.5v49.61A2.5,2.5,0,0,1,237.75,178Z"/><circle class="cls-6" cx="212.19" cy="390.14" r="13.92" transform="translate(-216.27 507.02) rotate(-76.72)"/><circle class="cls-6" cx="428.5" cy="92.86" r="13.92"/><path class="cls-1" d="M630.71,232.58a11.53,11.53,0,0,1-1.65-.11l-38.16-5.33a12,12,0,0,1-10.2-13.77l3.48-21.9q-2.19-1.28-4.25-2.64l-18.44,13.31a12,12,0,0,1-16.77-2.72L522.5,168.63a12,12,0,0,1,2.71-16.77l18.49-13.35c-.2-.77-.4-1.54-.58-2.3l-22-3a12,12,0,0,1-10.27-13.74l5.9-38.07a12.08,12.08,0,0,1,13.49-10.06l20.95,2.84c1.26-2.34,2.61-4.6,4-6.75l-11.75-16.3a12,12,0,0,1,2.72-16.77L577,12.15a12,12,0,0,1,16.77,2.72l11.73,16.25c1.29-.36,2.55-.67,3.77-.95L612,10.34A12,12,0,0,1,625.6.12l37.59,5.31A12,12,0,0,1,673.41,19L670.6,38.91q3.18,1.74,6.2,3.74l16.25-11.73a12,12,0,0,1,16.77,2.72L732,64.43a12,12,0,0,1-2.72,16.77L713,93c.45,1.69.85,3.38,1.19,5l19.85,3.17h0A12,12,0,0,1,744,115l-6,37.49a12,12,0,0,1-13.76,10l-19.79-3.16c-.93,1.64-1.92,3.25-3,4.81l11.76,16.29a12,12,0,0,1-2.71,16.78L678.9,220a12,12,0,0,1-16.77-2.72l-12-16.58c-1.45.37-2.86.69-4.25,1l-3.31,20.81A12.1,12.1,0,0,1,630.71,232.58Zm-50.82-49.3a2.47,2.47,0,0,1,1.42.45c2.15,1.48,4.44,2.91,6.82,4.23a2.51,2.51,0,0,1,1.26,2.58l-3.75,23.61a7,7,0,0,0,6,8l38.17,5.33a7,7,0,0,0,7.9-5.85l3.59-22.55a2.5,2.5,0,0,1,2-2.07c2.36-.42,4.73-1,7.25-1.65a2.52,2.52,0,0,1,2.69.95l13,18a7,7,0,0,0,9.79,1.58l31.69-22.85a7,7,0,0,0,1.59-9.79l-12.79-17.71a2.51,2.51,0,0,1,0-2.89A80.74,80.74,0,0,0,701,155.3a2.51,2.51,0,0,1,2.59-1.28l21.53,3.45a6.92,6.92,0,0,0,5.21-1.24,7,7,0,0,0,2.81-4.58l6-37.49a7,7,0,0,0-5.81-8l-21.57-3.45a2.49,2.49,0,0,1-2.06-2c-.49-2.61-1.12-5.31-1.89-8a2.5,2.5,0,0,1,.93-2.71l17.69-12.79a7,7,0,0,0,1.59-9.8L705.76,36.57A7,7,0,0,0,696,35L678.3,47.73a2.49,2.49,0,0,1-2.89,0,80.32,80.32,0,0,0-8.68-5.24,2.5,2.5,0,0,1-1.32-2.57l3.05-21.62a7,7,0,0,0-6-7.94L624.9,5.07A7,7,0,0,0,617,11l-3,21.56a2.5,2.5,0,0,1-2,2.11c-2.16.43-4.38,1-6.79,1.69a2.51,2.51,0,0,1-2.73-.94L589.67,17.79a7,7,0,0,0-9.8-1.59L549.09,38.42a7,7,0,0,0-1.59,9.8l12.77,17.71a2.49,2.49,0,0,1,0,2.88A81.8,81.8,0,0,0,554.79,78a2.5,2.5,0,0,1-2.56,1.34L529.54,76.3a7,7,0,0,0-7.88,5.88l-5.9,38.07a6.92,6.92,0,0,0,1.31,5.25,7,7,0,0,0,4.69,2.77l23.74,3.22a2.5,2.5,0,0,1,2.11,1.94c.39,1.77.85,3.58,1.37,5.4a2.5,2.5,0,0,1-.94,2.72l-19.9,14.36a7,7,0,0,0-1.59,9.8l22.22,30.78a7,7,0,0,0,9.79,1.59l19.86-14.33A2.54,2.54,0,0,1,579.89,183.28Zm47.51-5.09a62.25,62.25,0,0,1-10-.81,61.26,61.26,0,1,1,10,.81Zm-.2-118.27a56.63,56.63,0,1,0,33.21,102.54h0A56.62,56.62,0,0,0,627.2,59.92Z"/><path class="cls-1" d="M959,798.83a8.86,8.86,0,0,1-1.25-.09L931.2,795a9.11,9.11,0,0,1-7.74-10.45l2.34-14.73c-.72-.43-1.42-.86-2.1-1.31l-12.41,9a9.14,9.14,0,0,1-12.74-2.07L883.09,754a9.14,9.14,0,0,1,2.06-12.73l12.45-9c-.06-.2-.11-.4-.16-.6l-14.81-2a9.14,9.14,0,0,1-7.8-10.44l4.11-26.48a9.18,9.18,0,0,1,10.24-7.65L903.24,687c.73-1.32,1.49-2.61,2.3-3.85l-7.87-10.92a9.11,9.11,0,0,1,2.06-12.73l21.43-15.47a9.13,9.13,0,0,1,12.73,2.07L941.74,657l1.64-.41,1.87-13.28a9.12,9.12,0,0,1,10.31-7.76l26.16,3.69a9.12,9.12,0,0,1,7.76,10.32l-1.88,13.32c1.18.66,2.34,1.36,3.46,2.09l10.89-7.85a9.11,9.11,0,0,1,12.73,2.06l15.46,21.43a9.11,9.11,0,0,1-2.06,12.73l-10.91,7.89c.22.84.42,1.69.6,2.52l13.29,2.13h0a9.13,9.13,0,0,1,7.56,10.45l-4.18,26.09A9.11,9.11,0,0,1,1024,750l-13.26-2.12c-.49.85-1,1.68-1.53,2.5l7.88,10.91A9.12,9.12,0,0,1,1015,774l-22,15.91a9.12,9.12,0,0,1-12.73-2.07l-8-11.12c-.67.17-1.32.32-2,.45l-2.22,14A9.19,9.19,0,0,1,959,798.83ZM923.65,763a2.49,2.49,0,0,1,1.42.45c1.47,1,3,2,4.68,2.9a2.51,2.51,0,0,1,1.26,2.58l-2.61,16.43a4.11,4.11,0,0,0,3.49,4.72l26.56,3.71a4.1,4.1,0,0,0,4.65-3.44l2.49-15.69a2.5,2.5,0,0,1,2-2.06c1.62-.3,3.25-.67,5-1.14a2.49,2.49,0,0,1,2.68.95l9,12.51a4.13,4.13,0,0,0,5.76.93l22-15.9a4.13,4.13,0,0,0,.93-5.76l-8.9-12.32a2.5,2.5,0,0,1,0-2.88,54.11,54.11,0,0,0,3.11-5.07,2.51,2.51,0,0,1,2.59-1.27l15,2.39a4.09,4.09,0,0,0,4.71-3.41l4.18-26.09a4,4,0,0,0-.73-3.07,4.12,4.12,0,0,0-2.69-1.66l-15-2.39a2.52,2.52,0,0,1-2.07-2c-.33-1.79-.77-3.64-1.3-5.5a2.51,2.51,0,0,1,.94-2.71l12.31-8.9a4.13,4.13,0,0,0,.94-5.76l-15.46-21.42a4.12,4.12,0,0,0-5.76-.93l-12.29,8.87a2.49,2.49,0,0,1-2.89,0,55.49,55.49,0,0,0-6-3.6,2.5,2.5,0,0,1-1.32-2.57l2.12-15a4,4,0,0,0-.79-3.06,4.13,4.13,0,0,0-2.72-1.61l-26.16-3.69A4.12,4.12,0,0,0,950.2,644l-2.11,15a2.5,2.5,0,0,1-2,2.1c-1.48.3-3,.68-4.66,1.16a2.49,2.49,0,0,1-2.73-.93L929.83,649a4.12,4.12,0,0,0-5.75-.93l-21.42,15.46a4.12,4.12,0,0,0-.94,5.75l8.89,12.33a2.5,2.5,0,0,1,0,2.88,56.73,56.73,0,0,0-3.78,6.34,2.52,2.52,0,0,1-2.56,1.34l-15.79-2.14a4.1,4.1,0,0,0-4.63,3.45L879.77,720a4.12,4.12,0,0,0,3.53,4.71L899.82,727a2.49,2.49,0,0,1,2.1,1.94c.27,1.23.59,2.47,1,3.71a2.5,2.5,0,0,1-.94,2.72l-13.85,10a4.13,4.13,0,0,0-.93,5.76l15.46,21.42a4.12,4.12,0,0,0,5.75.93l13.82-10A2.54,2.54,0,0,1,923.65,763Zm33.06-2a44.41,44.41,0,0,1-7.06-.57,43.66,43.66,0,1,1,32.51-7.7h0A43.33,43.33,0,0,1,956.71,761Zm-.14-82.31a38.65,38.65,0,1,0,22.67,70h0a38.64,38.64,0,0,0-22.67-70Z"/></g></g></svg>