<svg xmlns="http://www.w3.org/2000/svg" width="31.217" height="30.161" viewBox="0 0 31.217 30.161">
  <path id="Shape" d="M16.961,7.715l-5.7,5.5a1.392,1.392,0,0,1-.54-.323,1.311,1.311,0,0,1,0-1.9l3.932-3.8a1.428,1.428,0,0,1,1.968,0A1.335,1.335,0,0,1,16.961,7.715Zm6.34,6.127a1.392,1.392,0,0,1,.54.323,1.311,1.311,0,0,1,0,1.9l-3.932,3.8a1.428,1.428,0,0,1-1.968,0,1.335,1.335,0,0,1-.335-.521Zm-7.548,3.067L10.9,21.594a.707.707,0,0,1-.162.79l-2.536,2.45a12.755,12.755,0,0,0,7.4,2.34A12.311,12.311,0,0,0,28.126,15.08,12.311,12.311,0,0,0,15.609,2.986,12.311,12.311,0,0,0,3.091,15.08a11.775,11.775,0,0,0,2.481,7.229l2.547-2.46a.769.769,0,0,1,.818-.157l4.848-4.684-1.421-1.373,5.027-4.857,4.81,4.648-5.027,4.857Zm-.144,13.252A15.351,15.351,0,0,1,0,15.08,15.351,15.351,0,0,1,15.609,0,15.351,15.351,0,0,1,31.217,15.08,15.351,15.351,0,0,1,15.609,30.161Z" fill="#ff8200"/>
</svg>
