<svg xmlns="http://www.w3.org/2000/svg" viewBox="0 0 951.98 1081.52"><defs><style>.cls-1{fill:#c4ddff;}.cls-2{fill:#fff;}.cls-3{fill:#8eb8ff;}.cls-4{fill:#090928;}.cls-5{fill:#3a2eff;}.cls-6{fill:#3b2ff6;}</style></defs><g id="Layer_2" data-name="Layer 2"><g id="Ñëîé_1" data-name="Ñëîé 1"><path class="cls-1" d="M899.9,1012.58l14.32-42.4a10.9,10.9,0,0,0-6.83-13.82l-23.7-8a98.69,98.69,0,0,0-.7-10.19l22.34-11.11a10.9,10.9,0,0,0,4.91-14.61l-19.36-38.94a10.91,10.91,0,0,0-14.62-4.91l-22.39,11.13a96.91,96.91,0,0,0-7.32-6.38l8-23.7a10.89,10.89,0,0,0-6.84-13.81L806.5,821.92a10.9,10.9,0,0,0-13.81,6.84l-8,23.64a97.21,97.21,0,0,0-12,.92l-11.55-22.19a10.9,10.9,0,0,0-14.7-4.64l-38.58,20.08a10.89,10.89,0,0,0-4.64,14.69l11.52,22.14q-2.82,3-5.38,6.28l-23.64-8A10.89,10.89,0,0,0,672,888.53L658,929.74a10.91,10.91,0,0,0,6.84,13.82l23.7,8a96.92,96.92,0,0,0,1,12.66l-23.2,12.24A10.9,10.9,0,0,0,661.77,991l19.82,39.39a10.9,10.9,0,0,0,14.82,4.74l24.28-12.8c1.62,1.46,3.3,2.88,5,4.24l-9,26.65a10.89,10.89,0,0,0,6.84,13.81L764.77,1081a10.91,10.91,0,0,0,13.81-6.84l9-26.59c3.17,0,6.33-.25,9.46-.6l12.21,24.5a10.89,10.89,0,0,0,14.8,4.8l39.13-20.44a10.9,10.9,0,0,0,4.7-14.52l-11.66-23.4c2-2.1,4-4.28,5.82-6.57l24.07,8.13A10.89,10.89,0,0,0,899.9,1012.58Z"/><circle class="cls-2" cx="785.64" cy="951.43" r="67.74" transform="translate(-442.66 834.2) rotate(-45)"/><rect class="cls-3" x="458.85" y="370.05" width="493.13" height="163.04" rx="37"/><rect class="cls-3" x="458.85" y="559.85" width="493.13" height="163.04" rx="37"/><rect class="cls-3" x="458.85" y="749.64" width="493.13" height="163.04" rx="37"/><rect class="cls-1" x="425.18" y="370.05" width="493.13" height="163.04" rx="37"/><rect class="cls-1" x="425.18" y="559.85" width="493.13" height="163.04" rx="37"/><rect class="cls-2" x="458.42" y="617.59" width="34.07" height="34.07"/><rect class="cls-2" x="526.41" y="617.59" width="34.07" height="34.07"/><rect class="cls-3" x="458.42" y="434.54" width="34.07" height="34.07"/><rect class="cls-3" x="526.41" y="434.54" width="34.07" height="34.07"/><rect class="cls-1" x="425.18" y="749.64" width="493.13" height="163.04" rx="37"/><path class="cls-4" d="M840.82,536.1H421.69a40.05,40.05,0,0,1-40-40V407.05a40.05,40.05,0,0,1,40-40H737.85a3,3,0,0,1,0,6H421.69a34,34,0,0,0-34,34V496.1a34,34,0,0,0,34,34H840.82a34,34,0,0,0,34-34V451.57a3,3,0,0,1,6,0V496.1A40,40,0,0,1,840.82,536.1Z"/><path class="cls-4" d="M840.82,725.89H482.45a3,3,0,1,1,0-6H840.82a34,34,0,0,0,34-34v-89a34,34,0,0,0-34-34H421.69a34,34,0,0,0-34,34v14a3,3,0,0,1-6,0v-14a40,40,0,0,1,40-40H840.82a40,40,0,0,1,40,40v89A40,40,0,0,1,840.82,725.89Z"/><path class="cls-1" d="M32.89,653.83a61.9,61.9,0,0,0-8.82-18.28c-7.21-10.5-15.9-20.23-20.5-32.11-6.56-16.93-4.43-38,9.28-50.6,11.37-10.48,26.68-14.51,41.78-15.37,16.5-.91,33.23,1.82,49.2,5.89,18.26-8.2,38-14.87,58.13-15.15,21.33-.3,44.92,9.49,51.15,31.74,10.5,37.48-33.51,68.38-19.23,105.56,10.6,27.6,45.68,40.75,47.91,72.57.77,11.09-2.87,21.51-9.17,30.24,19.06,7.5,49.38-.66,79.42,3.08,5.2.65,7.15,3.66,7.61,7.05a12.14,12.14,0,0,1-8.63,13.1c-125.36,38.2-236.8,22.55-268.78,10.16A54.24,54.24,0,0,1,16.13,786.4c-21.48-22.94-13.45-53,2.43-76.26C31.39,691.35,38.29,673.05,32.89,653.83Z"/><path class="cls-1" d="M71,989.23c0,42.42,212.35,42.42,212.35,0l-87-159.48H158.06Z"/><path class="cls-5" d="M354.22,930l61.38,85.46h-5.87a86.71,86.71,0,0,1-69.33-34.77h0a11.1,11.1,0,0,0-10.9,9l-5,25.69-21.83,0L302.24,933Z"/><path class="cls-5" d="M146.78,618.21a33.4,33.4,0,0,0,4.93.3c83.91-1.21,156.16-35.19,214.72-101a32.59,32.59,0,1,0-48.69-43.34c-46.56,52.31-101.18,78.2-167,79.15a32.6,32.6,0,0,0-4,64.88Z"/><path class="cls-4" d="M80,689.78c-21,22.69-20,60.14-.64,83.48C99,797,130.47,798.38,159,800.24l69.61,4.55c13.39.88,27.34.71,40.63,2.66A44.16,44.16,0,1,0,282,720.07L173.55,696c-16.13-3.58-33.07-9.52-49.87-9.06a59.41,59.41,0,0,0-7.62.68c-9,1.4-17.49-3.54-26.37-2.68A14.67,14.67,0,0,0,80,689.78Z"/><path class="cls-4" d="M241.68,762,301.8,934c30.33,8.8,48.2,3.15,58.52-11.25l-.21-.93L327,739.18A44.16,44.16,0,1,0,241.68,762Z"/><path class="cls-4" d="M154.47,400.22c6-3.91,14.62-4.38,21.17-1.86,7,2.68,13,7.84,20.31,9.06,13,2.18,34.74-12.93,45.4-.07,8,9.66-1.13,26.45,7,36,5.18,6.08,14.47,5.77,22.44,5.3,20.42-1.2,53.15,3.23,53.54,29.89.29,19.16-17.46,37.7-32,48.05-33,23.55-82.94,31.07-118,7.52-29.21-19.63-20.67-45.32-10.28-72.43,4.63-12.09.54-20.43-6.64-30s-16.75-20-4.61-30.23A18.11,18.11,0,0,1,154.47,400.22Z"/><path class="cls-5" d="M207,541.13l-1.72-1.21,2.7-20L167,509.72s-6.13,16.57-6.17,16.69c-.45,1.18-5.36,1.13-6.52,1.37-38.36,7.92-43.69,48.54-30.41,79.7,1.24,2.91-.64,18.89-2.52,20.5-16.48,14.08-39.79,31-35.54,55.85,4.16,24.29,32.69,35.95,54,40.2,43.15,8.59,89.62-18.14,80.58-67.79-2.38-13-4-25.17-4.09-33.68,0-1.38,1.4-3.95,3.44-6.93C236.3,591.47,230.7,558.23,207,541.13Z"/><path class="cls-2" d="M216.4,625.6a3,3,0,0,1-3-3c0-1.39.45-3.5,4-8.64,15.53-22.78,10.09-54.35-12.12-70.37a3,3,0,1,1,3.51-4.87c24.83,17.91,30.91,53.17,13.56,78.62-2.68,3.94-2.9,5.17-2.92,5.3a3,3,0,0,1-3,3Z"/><circle class="cls-2" cx="192.06" cy="461.58" r="36.63" transform="translate(-240.03 210.09) rotate(-37.21)"/><path class="cls-4" d="M192.08,501.22a41.3,41.3,0,0,1-5.4-.37,39.6,39.6,0,1,1,5.4.37ZM192,427.94A33.66,33.66,0,0,0,158.74,457h0a33.63,33.63,0,1,0,37.88-28.76A34.54,34.54,0,0,0,192,427.94Z"/><path class="cls-2" d="M199.1,598.62q-6.78-9.68-12.79-20.35Z"/><path class="cls-5" d="M197.06,600.06c-4.55-6.48-8.89-13.4-12.93-20.57l4.36-2.45c3.95,7,8.21,13.81,12.66,20.15Z"/><path class="cls-2" d="M204.87,606.49q-3-3.86-5.77-7.87Z"/><path class="cls-5" d="M202.89,608c-2-2.58-3.95-5.25-5.83-8l4.09-2.87c1.85,2.64,3.77,5.25,5.7,7.78Z"/><path class="cls-5" d="M149.56,641.37c40.88,55.55,98.33,92.22,171.27,109.23.62.14,1.23.27,1.85.37a32.59,32.59,0,0,0,12.95-63.86c-56.22-13.11-99.28-39.6-130.76-80.62Z"/><path class="cls-2" d="M211.68,705.69a3,3,0,0,1-1.74-.55,278.2,278.2,0,0,1-62.79-62,3,3,0,0,1,4.83-3.56,271.91,271.91,0,0,0,61.44,60.66,3,3,0,0,1,.7,4.18A3,3,0,0,1,211.68,705.69Z"/><path class="cls-2" d="M224,467.43c6-2.17,14.46-8.64,15.37-15.3a18.93,18.93,0,0,0-16.19-21.33,22.38,22.38,0,0,0-6.44,0l-4.95,1.07Z"/><path class="cls-2" d="M227.67,465.71c6-2.16,10.8-6.92,11.71-13.58a18.93,18.93,0,0,0-16.19-21.33,22.38,22.38,0,0,0-6.44,0l-4.95,1.07Z"/><path class="cls-4" d="M227.67,468.71a3,3,0,0,1-1-5.83c5.49-2,9-6,9.75-11.16a15.94,15.94,0,0,0-13.63-18,19.41,19.41,0,0,0-5.49,0l-4.86,1.06a3,3,0,0,1-1.27-5.87l5-1.07.18,0a25.49,25.49,0,0,1,7.3-.06,21.93,21.93,0,0,1,18.76,24.71c-1,7.31-6.11,13.29-13.67,16A3,3,0,0,1,227.67,468.71Z"/><path class="cls-2" d="M168.87,485.16c-6.32,1.08-16.83-.44-20.89-5.81a18.94,18.94,0,0,1,3.67-26.53,22.6,22.6,0,0,1,5.63-3.11l4.84-1.49Z"/><path class="cls-2" d="M164.84,485.45c-6.32,1.08-12.8-.73-16.86-6.1a18.94,18.94,0,0,1,3.67-26.53,22.6,22.6,0,0,1,5.63-3.11l4.84-1.49Z"/><path class="cls-4" d="M161.39,488.75a19.45,19.45,0,0,1-15.8-7.59,22,22,0,0,1,4.25-30.73,25.49,25.49,0,0,1,6.39-3.53l.17-.06,4.84-1.49a3,3,0,0,1,1.77,5.74l-4.76,1.46a19.18,19.18,0,0,0-4.79,2.67,16,16,0,0,0-3.09,22.32c3.13,4.13,8.22,5.93,14,5a3,3,0,0,1,1,5.91A23.37,23.37,0,0,1,161.39,488.75Z"/><path class="cls-4" d="M219.17,406.63c9.36,16-4,36.54-16.95,46.11-17.45,12.85-51.72,17.94-63.74-5.08-14.86-28.49,21.13-35.75,41.85-32.53C208.83,419.56,219.16,406.63,219.17,406.63Z"/><path class="cls-5" d="M226.54,393.93h0a14.3,14.3,0,0,1-13.17,16.89L185,412.58,183,394.93l23.32-11.25A14.3,14.3,0,0,1,226.54,393.93Z"/><path class="cls-5" d="M155.08,378.21h0a14.29,14.29,0,0,0,4.86,20.85l25,13.49,9.3-15.14-16.44-20A14.29,14.29,0,0,0,155.08,378.21Z"/><path class="cls-5" d="M162.94,905.88l.26,103.72-4.79-3.39a86.74,86.74,0,0,1-36.58-68.4h0a11.1,11.1,0,0,0-14.08,1L88.86,957,71,944.35l47.11-67.47Z"/><path class="cls-4" d="M116.75,880.67c10.38,19,19.42,31.46,48.13,31.24L265.57,786.19a44.15,44.15,0,0,0-74.68-47.13Z"/><path class="cls-5" d="M254.21,729.93a2.94,2.94,0,0,1-1.75-.58c-.74-.53-1.5-1-2.27-1.53l-.11-.08-16.25-11.36a3,3,0,0,1,3.44-4.92l16.19,11.33c.85.54,1.7,1.11,2.52,1.71a3,3,0,0,1-1.77,5.43Z"/><path class="cls-5" d="M211.68,856.48a3,3,0,0,1-2.34-4.88l53.78-67.15a41.2,41.2,0,0,0-10.67-55.1A3,3,0,1,1,256,724.5a47.22,47.22,0,0,1,12.13,63.29,2.83,2.83,0,0,1-.2.28L214,855.35A3,3,0,0,1,211.68,856.48Z"/><path class="cls-5" d="M137,844.92a3,3,0,0,1-2.67-4.37l29-56.56a3,3,0,1,1,5.34,2.74l-29,56.55A3,3,0,0,1,137,844.92Z"/><path class="cls-6" d="M257.2,730.16a1.24,1.24,0,0,1,0-2.48,1.24,1.24,0,0,1,0,2.48Z"/><path class="cls-2" d="M610,690.37h0A14.32,14.32,0,0,1,595.65,676V608.28A14.32,14.32,0,0,1,610,594h0a14.32,14.32,0,0,1,14.33,14.33V676A14.32,14.32,0,0,1,610,690.37Z"/><path class="cls-2" d="M666.75,690.37h0A14.33,14.33,0,0,1,652.41,676V608.28A14.33,14.33,0,0,1,666.75,594h0a14.33,14.33,0,0,1,14.33,14.33V676A14.33,14.33,0,0,1,666.75,690.37Z"/><path class="cls-3" d="M723.52,690.37h0A14.33,14.33,0,0,1,709.18,676V608.28A14.33,14.33,0,0,1,723.52,594h0a14.33,14.33,0,0,1,14.33,14.33V676A14.33,14.33,0,0,1,723.52,690.37Z"/><path class="cls-2" d="M780.28,690.37h0A14.33,14.33,0,0,1,766,676V608.28A14.33,14.33,0,0,1,780.28,594h0a14.33,14.33,0,0,1,14.34,14.33V676A14.33,14.33,0,0,1,780.28,690.37Z"/><path class="cls-2" d="M837.05,690.37h0A14.32,14.32,0,0,1,822.72,676V608.28A14.32,14.32,0,0,1,837.05,594h0a14.32,14.32,0,0,1,14.33,14.33V676A14.32,14.32,0,0,1,837.05,690.37Z"/><path class="cls-2" d="M610,884h0a14.32,14.32,0,0,1-14.33-14.33V802A14.33,14.33,0,0,1,610,787.62h0A14.33,14.33,0,0,1,624.31,802v67.76A14.32,14.32,0,0,1,610,884Z"/><path class="cls-2" d="M666.75,884h0a14.33,14.33,0,0,1-14.34-14.33V802a14.34,14.34,0,0,1,14.34-14.33h0A14.34,14.34,0,0,1,681.08,802v67.76A14.33,14.33,0,0,1,666.75,884Z"/><path class="cls-2" d="M723.52,884h0a14.33,14.33,0,0,1-14.34-14.33V802a14.34,14.34,0,0,1,14.34-14.33h0A14.34,14.34,0,0,1,737.85,802v67.76A14.33,14.33,0,0,1,723.52,884Z"/><path class="cls-2" d="M780.28,884h0A14.33,14.33,0,0,1,766,869.71V802a14.34,14.34,0,0,1,14.33-14.33h0A14.34,14.34,0,0,1,794.62,802v67.76A14.33,14.33,0,0,1,780.28,884Z"/><path class="cls-3" d="M837.05,884h0a14.32,14.32,0,0,1-14.33-14.33V802a14.33,14.33,0,0,1,14.33-14.33h0A14.33,14.33,0,0,1,851.38,802v67.76A14.32,14.32,0,0,1,837.05,884Z"/><path class="cls-2" d="M610,499.79h0a14.33,14.33,0,0,1-14.33-14.34V417.69A14.33,14.33,0,0,1,610,403.36h0a14.33,14.33,0,0,1,14.33,14.33v67.76A14.33,14.33,0,0,1,610,499.79Z"/><path class="cls-2" d="M666.75,499.79h0a14.34,14.34,0,0,1-14.34-14.34V417.69a14.34,14.34,0,0,1,14.34-14.33h0a14.34,14.34,0,0,1,14.33,14.33v67.76A14.34,14.34,0,0,1,666.75,499.79Z"/><path class="cls-3" d="M723.52,499.79h0a14.34,14.34,0,0,1-14.34-14.34V417.69a14.34,14.34,0,0,1,14.34-14.33h0a14.34,14.34,0,0,1,14.33,14.33v67.76A14.34,14.34,0,0,1,723.52,499.79Z"/><path class="cls-3" d="M780.28,499.79h0A14.34,14.34,0,0,1,766,485.45V417.69a14.34,14.34,0,0,1,14.33-14.33h0a14.34,14.34,0,0,1,14.34,14.33v67.76A14.34,14.34,0,0,1,780.28,499.79Z"/><path class="cls-2" d="M837.05,499.79h0a14.33,14.33,0,0,1-14.33-14.34V417.69a14.33,14.33,0,0,1,14.33-14.33h0a14.33,14.33,0,0,1,14.33,14.33v67.76A14.33,14.33,0,0,1,837.05,499.79Z"/><path class="cls-4" d="M548.75,668.81a119.64,119.64,0,1,1,7.37-.22Q552.43,668.82,548.75,668.81Zm.3-217.1q-3,0-6,.18a97.45,97.45,0,1,0,6-.18Z"/><path class="cls-4" d="M384.69,772.37a5.5,5.5,0,0,1-4.36-8.86L482.16,631.27a5.5,5.5,0,1,1,8.71,6.71L389.05,770.23A5.5,5.5,0,0,1,384.69,772.37Z"/><path class="cls-1" d="M768.76,107a91.4,91.4,0,0,0-13.32,1,123.52,123.52,0,0,0-232.4,38,69.52,69.52,0,0,0-9.85-.71,68,68,0,0,0-68,68H860.48A92.71,92.71,0,0,0,768.76,107Z"/><path class="cls-4" d="M642.26,216.18H402.38a3,3,0,0,1,0-6H642.26a3,3,0,0,1,0,6Z"/><path class="cls-4" d="M799.23,178.93H733.12a3,3,0,0,1,0-6H796.6A89.69,89.69,0,0,0,707.51,72.71a88.39,88.39,0,0,0-12.89.93A3,3,0,0,1,691.51,72,120,120,0,0,0,584,6C524.52,6,473.26,50.32,464.76,109.1a3,3,0,0,1-3.4,2.54,66.22,66.22,0,0,0-9.42-.68,65,65,0,0,0-65,65,3,3,0,0,1-3,3H329.83a3,3,0,0,1,0-6H381a71.07,71.07,0,0,1,70.91-68,72.32,72.32,0,0,1,7.34.38,126.52,126.52,0,0,1,236.6-37.92,95.67,95.67,0,0,1,106.31,109A3,3,0,0,1,799.23,178.93Z"/><path class="cls-2" d="M372.49,684.05c19.56-4.31,55.59-11.46,57,5.5a10.74,10.74,0,0,1-9.79,11.61l-18.9,1.6c.19.39.38.79.55,1.19l28-2.38a10.74,10.74,0,0,1,1.82,21.4L403,725.36c-.07.26-.14.53-.22.79l10.28-.88c5.69-.48,11.32,4.44,11.71,10.16.56,8.17-7.27,10.71-13.75,12-7.89,1.55-19.17,4.37-31.51,6.67Z"/><path class="cls-5" d="M380,756.54l-.91-4.92c7.3-1.36,14.22-2.9,20.33-4.26,4.08-.91,7.93-1.77,11.15-2.4,8.56-1.68,12.07-4.48,11.73-9.36a8.46,8.46,0,0,0-3.06-5.73,8.25,8.25,0,0,0-5.94-2.11h-.11l-10.16.87-3.65.31,1-3.51.14-.53.5-1.89L431,720.48a8.24,8.24,0,0,0-1.4-16.42l-29.75,2.53-.72-1.64c-.16-.37-.33-.73-.51-1.09L397,700.58l22.53-1.91a8.26,8.26,0,0,0,7.51-8.91,6.89,6.89,0,0,0-2.9-5.22c-9.74-7.17-39.79-.54-51.1,2L372,681.61c21.55-4.75,44.95-8.6,55.14-1.1a11.77,11.77,0,0,1,4.92,8.83,13.13,13.13,0,0,1-3.07,9.65l-.1.12.3,0a13.24,13.24,0,1,1,2.24,26.38l-8.72.74a13.51,13.51,0,0,1,4.64,9c.78,11.36-11.66,13.81-15.75,14.61-3.17.62-6.81,1.44-11,2.38C394.37,753.61,387.4,755.16,380,756.54Z"/><path class="cls-2" d="M344.31,437.25C354.37,419.93,373.49,388.56,387,399A10.74,10.74,0,0,1,388.87,414l-11.61,15,1.25.4,17.18-22.21a10.74,10.74,0,1,1,17,13.14L395.4,442.71l.43.68,6.31-8.15c3.5-4.52,10.92-5.34,15.4-1.76,6.4,5.12,3,12.6-.47,18.23-4.2,6.87-23,29.49-29.66,40.13Z"/><path class="cls-5" d="M389.53,493.17l-4.23-2.66c3.68-5.88,11-15.35,17.45-23.71,5.32-6.88,10.34-13.37,12.18-16.39,4.56-7.44,4.87-11.92,1.05-15a8.49,8.49,0,0,0-6.29-1.62,8.23,8.23,0,0,0-5.57,2.95l-8.54,11-1.89-3.12c-.09-.16-.19-.32-.29-.47l-1-1.65,18.35-23.73a8.24,8.24,0,0,0-13-10.08L379.4,432.38l-1.7-.58c-.38-.13-.77-.25-1.15-.36l-3.49-1.05,13.83-17.88A8.24,8.24,0,0,0,385.42,401a6.84,6.84,0,0,0-5.81-1.39c-11.87,2.32-27.32,28.93-33.14,38.95L342.15,436c11.08-19.08,24.08-38.92,36.5-41.35a11.76,11.76,0,0,1,9.82,2.35,13.15,13.15,0,0,1,5,8.95l.19-.24a13.23,13.23,0,1,1,20.94,16.19l-5.35,6.93a13.5,13.5,0,0,1,9.8,2.7c8.89,7.12,2.28,17.93.1,21.49-2,3.25-6.85,9.55-12.49,16.84C400.32,478.12,393.08,487.49,389.53,493.17Z"/><rect class="cls-3" x="458.42" y="815.91" width="34.07" height="34.07"/><rect class="cls-3" x="526.41" y="815.91" width="34.07" height="34.07"/><path class="cls-5" d="M742.47,1050.8a14,14,0,0,1-4.44-.73l-41.21-13.92a13.92,13.92,0,0,1-8.72-17.62l8.33-24.66-1.95-1.65L672,1004.06a13.89,13.89,0,0,1-18.9-6l-19.83-39.4a14,14,0,0,1,5.93-18.54l21.34-11.26c-.37-2.91-.61-5.86-.72-8.81l-21.71-7.34a13.9,13.9,0,0,1-8.72-17.61l13.91-41.21A13.91,13.91,0,0,1,661,845.13l21.65,7.31q1.36-1.66,2.78-3.24l-10.55-20.28a13.91,13.91,0,0,1,5.91-18.74l38.59-20.08A13.92,13.92,0,0,1,738.08,796l10.58,20.33c2.69-.31,5.4-.52,8.1-.62l7.32-21.66a13.91,13.91,0,0,1,17.61-8.72l41.21,13.92a13.89,13.89,0,0,1,8.72,17.61l-7.33,21.72c1.48,1.22,2.93,2.49,4.34,3.79l20.53-10.2a13.91,13.91,0,0,1,18.63,6.25l19.36,38.95A13.91,13.91,0,0,1,880.9,896L860.43,906.2q.32,3.1.43,6.26l21.71,7.34a13.91,13.91,0,0,1,8.73,17.61L877,979.82h0a13.91,13.91,0,0,1-17.61,8.72l-22.12-7.47c-1,1.22-2.1,2.43-3.19,3.6l10.73,21.53a14,14,0,0,1-6,18.51l-39.12,20.44a13.89,13.89,0,0,1-18.88-6.12l-11.28-22.64c-1.84.16-3.69.28-5.53.35l-8.31,24.6A13.92,13.92,0,0,1,742.47,1050.8Zm-47.55-65.2a2.94,2.94,0,0,1,2,.78c1.58,1.42,3.22,2.81,4.87,4.11a3,3,0,0,1,1,3.32l-9,26.64a7.92,7.92,0,0,0,5,10L740,1044.38a7.91,7.91,0,0,0,10-5l9-26.59a3,3,0,0,1,2.8-2c3.06,0,6.14-.24,9.17-.58a3,3,0,0,1,3,1.64l12.21,24.51a7.91,7.91,0,0,0,10.73,3.48L836,1019.39a7.92,7.92,0,0,0,3.41-10.52l-11.66-23.4a3,3,0,0,1,.54-3.43c2-2,3.86-4.17,5.63-6.36a3,3,0,0,1,3.3-.95l24.07,8.12a7.91,7.91,0,0,0,10-5l14.32-42.41a7.89,7.89,0,0,0-5-10l-23.69-8a3,3,0,0,1-2-2.79,97.73,97.73,0,0,0-.68-9.88,3,3,0,0,1,1.64-3l22.34-11.11a7.91,7.91,0,0,0,3.56-10.59l-19.36-38.94a7.9,7.9,0,0,0-10.59-3.56l-22.4,11.14a3,3,0,0,1-3.42-.53,92.93,92.93,0,0,0-7.09-6.19,3,3,0,0,1-1-3.32l8-23.7a7.91,7.91,0,0,0-5-10L779.77,791a7.91,7.91,0,0,0-10,5l-8,23.65a3,3,0,0,1-2.8,2,91.72,91.72,0,0,0-11.6.89,3,3,0,0,1-3.07-1.59l-11.55-22.19a7.89,7.89,0,0,0-10.65-3.36L683.52,815.5a7.91,7.91,0,0,0-3.36,10.65l11.52,22.14a3,3,0,0,1-.47,3.43c-1.79,1.92-3.54,4-5.21,6.09a3,3,0,0,1-3.32,1l-23.64-8a7.91,7.91,0,0,0-10,5L635.11,897a7.91,7.91,0,0,0,5,10l23.69,8a3,3,0,0,1,2,2.79,94.29,94.29,0,0,0,1,12.27,3,3,0,0,1-1.57,3.1L642,945.39a7.93,7.93,0,0,0-3.37,10.53l19.83,39.4a7.91,7.91,0,0,0,10.74,3.44L693.52,986A2.91,2.91,0,0,1,694.92,985.6Zm179.21-6.74h0Z"/><path class="cls-5" d="M759.93,988.48a70.86,70.86,0,1,1,31.32-7.38A70.84,70.84,0,0,1,759.93,988.48Zm-.13-135.54a64.81,64.81,0,1,0,20.78,3.43A64.41,64.41,0,0,0,759.8,852.94Z"/><path class="cls-5" d="M937.47,344.93l-16.41-5.53a68.78,68.78,0,0,0-.47-7.06L936,324.65a7.54,7.54,0,0,0,3.4-10.12L926,287.58a7.55,7.55,0,0,0-10.12-3.4l-15.49,7.71c-1.61-1.55-3.3-3-5.08-4.43l5.54-16.4a7.52,7.52,0,0,0-4.73-9.55l-28.52-9.64a7.56,7.56,0,0,0-9.57,4.73L852.55,273a66.82,66.82,0,0,0-8.28.63l-8-15.36A7.53,7.53,0,0,0,826.1,255l-26.71,13.89a7.56,7.56,0,0,0-3.21,10.19l8,15.32c-1.3,1.39-2.54,2.83-3.72,4.35l-16.37-5.54A7.56,7.56,0,0,0,774.5,298l-9.63,28.51a7.55,7.55,0,0,0,4.73,9.57L786,341.6a65.51,65.51,0,0,0,.71,8.77l-16.06,8.48a7.55,7.55,0,0,0-3.22,10.06l13.73,27.27a7.53,7.53,0,0,0,10.26,3.27l16.81-8.86q1.68,1.55,3.48,3L805.49,412a7.54,7.54,0,0,0,4.73,9.56l28.53,9.63a7.53,7.53,0,0,0,9.55-4.73L854.52,408c2.2,0,4.39-.17,6.55-.41l8.45,17a7.54,7.54,0,0,0,10.25,3.32l27.08-14.15a7.52,7.52,0,0,0,3.25-10L902,387.5q2.12-2.17,4-4.54l16.66,5.63a7.55,7.55,0,0,0,9.56-4.74l9.91-29.35A7.55,7.55,0,0,0,937.47,344.93Zm-39.85,11.6a46.89,46.89,0,1,1-29.43-59.43A46.9,46.9,0,0,1,897.62,356.53Z"/></g></g></svg>